<svg xmlns="http://www.w3.org/2000/svg" xmlns:xlink="http://www.w3.org/1999/xlink" width="16" height="16" viewBox="0 0 16 16"><defs><style>.a{fill:url(#a);}.b{fill:#fff;}</style><linearGradient id="a" x1="0.5" x2="0.5" y2="1" gradientUnits="objectBoundingBox"><stop offset="0" stop-color="#fe4518"/><stop offset="1" stop-color="#df2330"/></linearGradient></defs><g transform="translate(-949 -645)"><rect class="a" width="16" height="16" rx="1" transform="translate(949 645)"/><g transform="translate(951.266 650.576)"><g transform="translate(0)"><path class="b" d="M-1687.744,402.786c0-.033,0-.066,0-.1,0-.686.023-.7.7-.654.19.014.282.09.281.281q0,.395,0,.789c0,.224.091.4.329.415.263.015.361-.178.374-.408s.011-.483,0-.723.073-.383.343-.353c.621-.012.62-.021.619.588,0,.164-.006.33.006.493.016.216.106.4.349.4s.335-.17.358-.392a2.435,2.435,0,0,1,1.047-1.821,2.39,2.39,0,0,1,2.925.178c.2.175.2.295-.009.469-.418.357-.409.367-.878.1a1.416,1.416,0,0,0-2.1,1.115,1.3,1.3,0,0,1-1.11,1.316,3.191,3.191,0,0,1-.856-.123c-.122-.017-.278-.068-.366-.016a1.354,1.354,0,0,1-2.008-1.361C-1687.74,402.918-1687.744,402.852-1687.744,402.786Z" transform="translate(1687.749 -400.89)"/><path class="b" d="M-1357.218,508.258v.1c0,.682-.03.705-.7.65-.2-.016-.271-.1-.268-.29,0-.252.005-.5,0-.757-.005-.231-.088-.43-.349-.433s-.35.19-.354.425c0,.252-.008.5,0,.757.006.21-.089.287-.3.3-.674.036-.676.04-.681-.638,0-.154,0-.307-.008-.461-.009-.211-.1-.373-.326-.383s-.335.134-.357.35a2.555,2.555,0,0,1-.551,1.385,2.389,2.389,0,0,1-3.382.335c-.275-.231-.276-.286-.01-.527a1.063,1.063,0,0,0,.164-.161c.151-.213.28-.226.5-.052a1.4,1.4,0,0,0,2.276-.925,2.975,2.975,0,0,1,.118-.577,1.334,1.334,0,0,1,1.776-.716.745.745,0,0,0,.511.025,1.326,1.326,0,0,1,1.932,1.17c.009.142,0,.285,0,.428Z" transform="translate(1368.699 -505.221)"/></g><circle class="b" cx="0.406" cy="0.406" r="0.406" transform="translate(5.335 2.056)"/></g></g></svg>